<?xml version="1.0" encoding="UTF-8"?>
<!DOCTYPE svg PUBLIC "-//W3C//DTD SVG 1.1//EN" "http://www.w3.org/Graphics/SVG/1.1/DTD/svg11.dtd">
<!-- Creator: CorelDRAW -->
<svg xmlns="http://www.w3.org/2000/svg" xml:space="preserve" width="402px" height="201px" style="shape-rendering:geometricPrecision; text-rendering:geometricPrecision; image-rendering:optimizeQuality; fill-rule:evenodd; clip-rule:evenodd"
viewBox="0 0 80.2014 40.1614"
 xmlns:xlink="http://www.w3.org/1999/xlink">
 <defs>
  <style type="text/css">
   <![CDATA[
    .fil2 {fill:#373435}
    .fil0 {fill:#1A5493}
    .fil1 {fill:#FFCC29}
   ]]>
  </style>
 </defs>
 <g id="Layer_x0020_1">
  <metadata id="CorelCorpID_0Corel-Layer"/>
  <g id="_360063952">
   <g>
    <path id="_360064192" class="fil0" d="M-0.000235435 20.0576c0,-2.69385 0.958691,-5.00535 2.92881,-6.90107 1.42085,-1.36741 2.83464,-2.20061 5.26385,-2.61403l-0.338085 0.188583c-0.727494,0.416955 -1.4119,0.933735 -2.05323,1.55081 -1.97012,1.89619 -2.95541,5.02277 -2.95541,7.71662 0,2.69361 0.98506,5.93861 2.95541,7.85364 0.641325,0.623432 1.32573,1.14539 2.05323,1.56658l0.361393 0.198943c-1.84369,-0.386349 -3.83947,-1.27206 -5.26056,-2.65335 -1.96988,-1.91479 -2.95541,-4.21287 -2.95541,-6.90672z"/>
    <path id="_360063880" class="fil1" d="M9.37784 10.4309c0.0685116,-1.13974 -0.153504,-1.58259 -0.0320192,-2.09984 0.148559,-0.632143 0.619194,-1.00578 0.594709,-1.80014 -0.0242498,-0.794358 -0.709601,-2.08148 -0.73597,-2.79085 -0.0266041,-0.709366 0.395766,-0.744445 0.561512,-1.36576 0.161273,-0.605303 0.005415,-1.48277 -0.183875,-2.37413 0.662279,0.779761 1.1534,1.63674 1.1833,2.16953 0.0421429,0.754569 -0.493943,0.885706 -0.442382,1.67371 0.0515603,0.788236 0.785646,2.04122 0.864988,2.74611 0.0793416,0.704657 -0.483819,1.22497 -0.463336,1.61508 0.0202474,0.390116 0.137494,0.970934 0.517486,0.927614 0.379992,-0.0430846 0.542678,-0.566927 0.631907,-1.05852 0.0894653,-0.491588 -0.282993,-1.25864 -0.11913,-1.76105 0.164098,-0.502418 0.812015,-0.472989 1.01308,-0.974701 0.200826,-0.501712 0.342793,-1.30266 0.111596,-1.8331 0.555156,0.518899 0.53585,1.43733 0.469457,2.04993 -0.0661572,0.612602 -0.623432,0.797418 -0.688647,1.26193 -0.0654509,0.464278 0.201768,0.862398 0.282522,1.35399 0.0807542,0.491824 -0.565986,1.71844 0.0442618,1.68336 0.610012,-0.0350798 0.552801,-1.24286 0.950922,-1.74057 0.398356,-0.497709 1.0757,-0.540088 1.39943,-1.19672 0.323958,-0.656628 0.0854629,-1.72503 0.427785,-2.36518 0.342558,-0.640148 1.04227,-0.780938 1.47594,-1.19248 0.37646,-0.357155 0.717135,-0.872993 0.946684,-1.51126 -0.0094174,0.725611 -0.153974,1.65982 -0.421899,2.05652 -0.358332,0.530906 -0.806365,0.57658 -1.04321,1.18141 -0.236612,0.604597 0.0136552,1.71844 -0.223663,2.31197 -0.237318,0.593767 -0.996125,0.779996 -1.1953,1.27723 -0.199178,0.497003 -0.551624,1.31844 -0.0294294,1.52891 0.52243,0.210479 1.22214,-0.447562 1.62309,-0.886648 0.400946,-0.438851 0.245088,-1.19766 0.642267,-1.59342 0.397179,-0.396002 1.1162,-0.234493 1.54069,-0.582231 0.326313,-0.267454 0.371516,-0.75763 0.557039,-1.13644 -0.0880527,0.610012 0.0602713,1.30643 -0.264393,1.83027 -0.240379,0.387526 -0.97988,0.210008 -1.23486,0.588117 -0.380463,0.563631 -0.190231,1.6205 -0.497003,1.9786 -0.305595,0.356919 -1.05734,0.428021 -1.08771,0.896772 -0.027075,0.417191 0.58741,0.929262 0.979174,0.783528 0.727965,-0.27075 0.924553,-1.28571 1.56258,-1.7288 0.610247,-0.423783 1.5089,-0.326077 2.08007,-0.801185 0.455802,-0.37905 0.335966,-1.21602 0.795299,-1.5906 0.474637,-0.387526 1.21791,-0.23261 1.76859,-0.501476 0.522195,-0.254976 0.93091,-0.695946 1.3966,-1.04368 -0.421429,0.705599 -0.569046,1.39872 -1.1614,1.96871 -0.280874,0.270279 -0.997773,0.061684 -1.25393,0.355507 -0.503831,0.577757 -0.329609,1.59272 -0.882175,2.12433 -0.481935,0.463807 -1.42156,0.131608 -1.9228,0.574697 -0.54668,0.483348 -1.53551,1.52727 -0.955395,1.97012 0.625551,0.477462 1.34622,-0.837913 2.08595,-1.10725 0.737853,-0.268396 1.61461,-0.114657 2.30373,-0.490882 0.8066,-0.440734 1.34951,-1.24875 2.02403,-1.87312 -0.577993,0.90666 -0.93656,1.99908 -1.73445,2.71974 -0.544561,0.491824 -1.51926,0.250032 -2.07866,0.724904 -0.411776,0.349385 -1.08724,1.22944 -0.665575,1.56658 0.444737,0.356213 1.12915,-0.655451 1.69372,-0.732203 0.63591,-0.0861692 1.23297,0.361864 1.85758,0.215188 0.66063,-0.155152 1.0458,-0.948567 1.70384,-1.11455 0.548563,-0.1382 1.1162,0.333847 1.67724,0.261804 0.855335,-0.109948 1.64169,-0.529258 2.46241,-0.793887 -0.751037,0.622725 -1.37588,1.4418 -2.25358,1.86841 -0.458392,0.222957 -1.04439,-0.187877 -1.52891,-0.0294294 -0.664868,0.217777 -1.11643,0.891357 -1.78012,1.1129 -0.532318,0.177989 -1.19177,-0.358332 -1.70502,-0.131373 -0.66016,0.291704 -2.073,0.866401 -1.7627,1.51808 0.311716,0.654274 1.57647,-0.321133 2.29902,-0.262039 0.547151,0.0447326 0.968815,0.668635 1.51714,0.641089 0.648859,-0.0329609 1.12797,-0.740914 1.77424,-0.807306 0.480994,-0.0492059 1.0604,0.401417 1.51597,0.56316 -0.38423,0.0946449 -1.04933,-0.0755746 -1.42344,0.0532083 -0.680172,0.234022 -1.0976,0.945507 -1.80838,1.05687 -0.631437,0.0988827 -1.36081,-0.444972 -1.98119,-0.291233 -0.509952,0.126429 -1.37824,0.538911 -1.2438,1.04674 0.152797,0.57658 1.07711,0.516309 1.67159,0.567398 0.597534,0.0513248 1.16564,-0.346089 1.76553,-0.348444 0.51984,-0.00211891 1.00484,0.375754 1.52303,0.335259 0.57093,-0.0447326 1.06252,-0.724198 1.61697,-0.580818 0.682526,0.176341 1.05263,0.937973 1.57906,1.40672 -0.559629,-0.061684 -1.09218,-0.602243 -1.64757,-0.509952 -0.58482,0.0972346 -0.908308,0.736676 -1.49642,0.811073 -0.515603,0.0652155 -1.15575,-0.260862 -1.67512,-0.238025 -0.377167,0.0167159 -0.977761,0.611425 -1.47618,0.640619 -0.440028,0.0256624 -1.05993,-0.37646 -1.37188,-0.260156 -0.450387,0.168101 -0.732909,0.605774 -0.466868,1.00625 0.355036,0.534437 1.10913,0.563396 1.75046,0.588587 0.6385,0.0249561 1.45334,-0.605539 2.07041,-0.438851 0.472518,0.127841 0.667694,0.775758 1.12891,0.939385 0.504537,0.178931 1.27253,-0.0755746 1.80767,-0.0654509 -0.489705,0.270986 -1.11172,0.89065 -1.67088,0.90925 -0.535379,0.0178931 -0.904777,-0.678759 -1.43921,-0.715722 -0.56269,-0.0390822 -1.05451,0.446385 -1.61555,0.504302 -0.710307,0.0729848 -1.73162,-0.703951 -2.13893,-0.117717 -0.350327,0.504066 0.147147,0.805894 0.705128,1.06181 0.486879,0.223428 1.78248,0.0353152 2.25123,0.295 0.476991,0.264393 0.513248,1.01873 0.968815,1.31867 0.552566,0.363982 1.38648,0.155623 1.9009,0.571871 0.469457,0.379992 0.907131,1.51361 1.17717,2.05417 -0.402358,-0.288172 -1.11031,-1.12514 -1.57412,-1.29701 -0.65239,-0.241792 -1.4451,-0.0169513 -2.05817,-0.345619 -0.54103,-0.28982 -0.62814,-1.16823 -1.19672,-1.39943 -0.547622,-0.222721 -1.17458,0.255918 -1.7627,0.195646 -0.658041,-0.0675698 -1.57506,-1.10984 -2.05182,-0.650978 -0.418839,0.402829 0.731026,1.12561 1.19483,1.47571 0.574226,0.433436 1.49784,0.337378 1.97153,0.879114 0.601301,0.68747 0.681113,1.69537 1.02179,2.54317 -0.447562,-0.594944 -0.70913,-1.3933 -1.34245,-1.7846 -0.684409,-0.423077 -1.60402,-0.230962 -2.36094,-0.504302 -0.600595,-0.216836 -1.14586,-1.32291 -1.66405,-0.949509 -0.480994,0.346325 0.316189,1.19907 0.733615,1.62003 0.481464,0.485467 1.37353,0.432023 1.81709,0.95257 0.397179,0.466161 0.111596,1.2956 0.501241,1.76835 0.561983,0.68182 1.65793,0.788943 2.18907,1.49501 0.427314,0.568105 0.330315,1.38294 0.495355,2.07418 -0.526197,-0.468751 -0.654509,-1.22308 -1.24969,-1.60072 -0.70348,-0.446385 -1.89643,-0.494413 -2.42239,-1.14068 -0.420958,-0.517486 -0.114421,-1.26499 -0.545974,-1.77353 -0.464278,-0.547151 -1.2066,-0.332434 -1.77447,-0.771049 -0.397414,-0.307007 -0.967873,-1.31326 -1.46229,-0.745387 -0.20577,0.236141 0.0965283,0.563631 0.320662,0.941504 0.22437,0.377873 0.370575,0.806365 0.557275,1.05828 0.312658,0.421899 0.848743,0.274753 1.13456,0.715251 0.307007,0.473224 0.336201,1.07711 0.504302,1.61579 -0.376225,-0.313128 -0.476285,-0.777406 -0.876289,-1.05969 -0.382111,-0.269808 -1.15128,-0.242027 -1.46252,-0.591177 -0.329373,-0.369397 -0.509481,-0.894417 -0.721608,-1.37447 -0.211891,-0.480052 -0.456038,-0.9149 -0.913252,-1.10395 -0.542207,-0.22437 -0.53326,0.847566 -0.429433,1.42509 0.131608,0.731026 0.871345,0.983883 1.03379,1.70902 0.100295,0.447562 -0.122426,1.65793 0.0602713,2.07866 0.236848,0.545738 0.942211,0.785882 1.19813,1.32291 0.326784,0.686528 0.328432,1.48489 0.49253,2.22721 -0.371516,-0.567869 -0.670283,-1.19083 -1.11431,-1.70384 -0.461453,-0.532789 -1.27041,-0.772933 -1.57906,-1.40672 -0.325136,-0.668164 0.048735,-1.51644 -0.1867,-2.22133 -0.166453,-0.49818 -0.681113,-0.803539 -0.970227,-1.24215 -0.257566,-0.390587 -0.179166,-1.35587 -0.664633,-1.23627 -0.485467,0.119601 -0.83344,0.630966 -0.856748,1.16234 -0.0237789,0.549741 0.71737,1.42038 0.720196,1.97036 0.00258978,0.51984 -0.459569,0.763045 -0.355271,1.27229 0.121955,0.595415 0.685351,0.801421 0.816959,1.39495 0.0769872,0.346325 -0.0998244,1.06134 -0.233787,1.39024 -0.120072,-0.384701 -0.17328,-0.797183 -0.360215,-1.1541 -0.236377,-0.451564 -0.749154,-0.751979 -0.893711,-1.24074 -0.181049,-0.611189 0.255211,-1.03945 0.105475,-1.65935 -0.117717,-0.488528 -0.557275,-1.09265 -0.785176,-1.54045 -0.165275,-0.325136 -0.183639,-1.46629 -0.612602,-1.18353 -0.428727,0.282757 -0.643679,1.31655 -0.726317,1.97389 -0.0748683,0.59518 0.373871,1.16634 0.348444,1.76576 -0.0223663,0.531612 -0.536556,0.990004 -0.487821,1.51997 0.0635674,0.69312 0.81743,1.23132 0.80401,1.92727 -0.0169513,0.886413 -0.592825,1.67088 -0.889238,2.50644 -0.0357861,-0.790826 0.0508539,-1.59696 -0.107358,-2.37271 -0.148559,-0.727965 -0.645092,-1.35375 -0.801185,-2.08007 -0.128783,-0.598476 0.0228372,-1.22732 -0.0414366,-1.83616 -0.0654509,-0.621313 -0.358803,-1.2172 -0.346796,-1.84204 0.0153033,-0.805188 0.41154,-1.52703 0.426844,-2.31644 5.38934,0.103356 9.86802,-4.14342 9.96996,-9.45389 0.101943,-5.31047 -4.21052,-9.72629 -9.59986,-9.82964 -0.129254,-0.00258978 -0.264629,0.0299002 -0.386349,0.000706305z"/>
   </g>
   <g>
    <path id="_360063712" class="fil0" d="M36.8887 15.0271l0 2.88926 -1.81426 0 0 -7.44022 1.62897 0 0 1.01002c0.207418,-0.372223 0.473224,-0.656864 0.800714,-0.853923 0.325842,-0.197294 0.692885,-0.296648 1.10254,-0.296648 0.713368,0 1.28618,0.250267 1.72174,0.752686 0.435555,0.502418 0.653332,1.17129 0.653332,2.00473 0,0.834852 -0.219425,1.5122 -0.66016,2.03534 -0.440734,0.522901 -1.00484,0.783528 -1.69584,0.783528 -0.367043,0 -0.696181,-0.0736911 -0.986002,-0.221073 -0.28982,-0.147618 -0.540323,-0.368691 -0.751037,-0.663691zm1.12985 -3.33517c-0.351504,0 -0.62767,0.126899 -0.82826,0.382346 -0.200591,0.253799 -0.301592,0.603655 -0.301592,1.04957 0,0.432023 0.0993535,0.773168 0.296648,1.02697 0.197059,0.252151 0.464749,0.37905 0.802362,0.37905 0.341381,0 0.614014,-0.130431 0.816253,-0.391057 0.202474,-0.262275 0.303476,-0.618958 0.303476,-1.07005 0,-0.416484 -0.0993535,-0.749154 -0.298296,-0.999657 -0.198943,-0.251915 -0.463101,-0.377167 -0.790591,-0.377167zm8.55123 -1.2963l-0.0960575 1.56376c-0.0736911,-0.030842 -0.156093,-0.0532083 -0.245088,-0.0685116 -0.0908779,-0.0155387 -0.197294,-0.0223663 -0.317366,-0.0223663 -0.432023,0 -0.757865,0.138907 -0.97729,0.41672 -0.219425,0.277813 -0.329373,0.685822 -0.329373,1.22615l0 2.25476 -1.81426 0 0 -5.28999 1.61885 0 0 1.01002c0.183404,-0.391057 0.408009,-0.680642 0.672167,-0.869461 0.265806,-0.186935 0.579641,-0.281109 0.941504,-0.281109 0.0925259,0 0.263923,0.0188348 0.510894,0.0548563l0.0360215 0.00517957zm4.12364 1.20543c-0.341145,0 -0.618958,0.138907 -0.831792,0.414836 -0.212362,0.276165 -0.318779,0.641325 -0.318779,1.0976 0,0.44921 0.106417,0.811073 0.318779,1.087 0.212833,0.276165 0.490646,0.415072 0.831792,0.415072 0.348208,0 0.62767,-0.137259 0.836736,-0.409892 0.209302,-0.272634 0.313835,-0.636145 0.313835,-1.09218 0,-0.459569 -0.104533,-0.826612 -0.313835,-1.10089 -0.209066,-0.274282 -0.488528,-0.41154 -0.836736,-0.41154zm0 -1.26546c0.953512,0 1.69937,0.246971 2.23781,0.73903 0.536556,0.492059 0.805894,1.17458 0.805894,2.04923 0,0.867578 -0.269338,1.54657 -0.805894,2.03863 -0.53844,0.492294 -1.2843,0.739266 -2.23781,0.739266 -0.951628,0 -1.69584,-0.246971 -2.23098,-0.739266 -0.536556,-0.492059 -0.80401,-1.17105 -0.80401,-2.03863 0,-0.874641 0.267454,-1.55717 0.80401,-2.04923 0.535144,-0.492059 1.27935,-0.73903 2.23098,-0.73903zm7.49837 1.3255c-0.308655,0 -0.562454,0.133727 -0.761397,0.401181 -0.198943,0.269338 -0.298296,0.615662 -0.298296,1.04086 0,0.428727 0.0993535,0.769872 0.298296,1.02038 0.198943,0.251915 0.466397,0.377167 0.800714,0.377167 0.348208,0 0.62249,-0.125251 0.821433,-0.377167 0.198943,-0.250503 0.298296,-0.600124 0.298296,-1.04439 0,-0.433907 -0.104533,-0.7767 -0.313835,-1.03403 -0.209066,-0.255447 -0.490411,-0.383994 -0.845211,-0.383994zm1.16941 -3.61134l1.81426 0 0 7.71638 -1.62897 0 0 -1.05969c-0.204122,0.372223 -0.469928,0.65498 -0.797418,0.848743 -0.329138,0.193763 -0.699713,0.291468 -1.11455,0.291468 -0.703009,0 -1.27229,-0.255447 -1.7062,-0.767989 -0.433907,-0.512777 -0.650036,-1.19012 -0.650036,-2.03039 0,-0.826612 0.21095,-1.48677 0.634497,-1.97718 0.423547,-0.490411 0.991181,-0.735499 1.70102,-0.735499 0.372223,0 0.703244,0.0720431 0.996361,0.217777 0.293352,0.145734 0.543619,0.36516 0.751037,0.65498l0 -3.1586zm3.8682 2.42639l1.81426 0 0 5.28999 -1.81426 0 0 -5.28999zm0 -2.42639l1.81426 0 0 1.47123 -1.81426 0 0 -1.47123zm6.5757 3.64218c-0.325842,0 -0.586468,0.12172 -0.783528,0.367043 -0.197294,0.245088 -0.296648,0.567398 -0.296648,0.968815 0,0.402829 0.0993535,0.723492 0.296648,0.965283 0.197059,0.241792 0.457686,0.361864 0.783528,0.361864 0.324194,0 0.588117,-0.12172 0.788943,-0.363512 0.200591,-0.243675 0.301592,-0.564102 0.301592,-0.963635 0,-0.397885 -0.101002,-0.720196 -0.301592,-0.967167 -0.200826,-0.245323 -0.464749,-0.368691 -0.788943,-0.368691zm1.24663 -0.361864l0 -0.853923 1.67182 0 0 4.5818c0,0.979174 -0.260626,1.71302 -0.783528,2.20344 -0.522901,0.490411 -1.30313,0.735734 -2.34069,0.735734 -0.392705,0 -0.764693,-0.0291939 -1.11785,-0.0859338 -0.353388,-0.0565044 -0.687705,-0.143851 -1.00319,-0.260626l0.101002 -1.35116c0.288172,0.144086 0.581289,0.253799 0.881468,0.32749 0.30018,0.0736911 0.593296,0.109948 0.881468,0.109948 0.519605,0 0.91749,-0.120307 1.19177,-0.360215 0.274282,-0.23826 0.41154,-0.582937 0.41154,-1.03238l0 -0.492059c-0.234964,0.295 -0.497239,0.514425 -0.788943,0.658512 -0.291468,0.144086 -0.620607,0.216129 -0.989298,0.216129 -0.697829,0 -1.26028,-0.245323 -1.69066,-0.735734 -0.430611,-0.490411 -0.646504,-1.13856 -0.646504,-1.94281 0,-0.809425 0.221073,-1.46441 0.665339,-1.96329 0.44403,-0.499122 1.02179,-0.749389 1.73186,-0.749389 0.375519,0 0.711484,0.0821668 1.01166,0.246971 0.30018,0.162921 0.57093,0.413188 0.812721,0.747506zm3.0915 -0.853923l1.95482 0 1.16941 3.69704 1.11125 -3.69704 1.82274 0 -2.06971 5.16474c-0.200591,0.502654 -0.36516,0.871109 -0.492059,1.10772 -0.126899,0.236848 -0.25733,0.423547 -0.392705,0.560806 -0.229785,0.236612 -0.492294,0.413188 -0.783763,0.526433 -0.28982,0.114892 -0.618958,0.171397 -0.984118,0.171397 -0.133962,0 -0.281345,-0.00682761 -0.442618,-0.0221309 -0.159389,-0.0155387 -0.337614,-0.037905 -0.531377,-0.068747l0.161038 -1.35634c0.102885,0.0343735 0.204122,0.0600359 0.30018,0.0755746 0.0977055,0.0171868 0.193763,0.0256624 0.286289,0.0256624 0.248619,0 0.459569,-0.0583879 0.634497,-0.17328 0.17328,-0.11654 0.32231,-0.298296 0.445914,-0.545267l-2.18978 -5.46656z"/>
    <path id="_360064240" class="fil2" d="M35.0744 21.0957l0.508304 0 0 3.63111 -0.508304 0 0 -3.63111zm1.91573 0l0.638264 0 1.57977 2.82593c0.0218955,0.0412011 0.048735,0.103827 0.0800479,0.187642 0.0315483,0.0845211 0.0647446,0.18411 0.0988827,0.298296 -0.0218955,-0.133492 -0.0395531,-0.253093 -0.0506185,-0.359274 -0.0124781,-0.106417 -0.0185994,-0.198001 -0.0185994,-0.274753l0 -2.67784 0.467574 0 0 3.63111 -0.623432 0 -1.60755 -2.85135c-0.020012,-0.0348444 -0.0444972,-0.0913488 -0.074162,-0.172574 -0.0287231,-0.0812251 -0.0609777,-0.1867 -0.0967638,-0.315718 0.0251915,0.194469 0.0435555,0.343735 0.0548563,0.450152 0.0115363,0.105475 0.0164804,0.181285 0.0164804,0.226724l0 2.66277 -0.464749 0 0 -3.63111zm3.81075 0l0.539146 0 1.06581 3.14541 1.10348 -3.14541 0.513719 0 -1.33892 3.63111 -0.593061 0 -1.29018 -3.63111zm4.2011 0l1.96565 0 0 0.390822 -1.45734 0 0 1.15222 1.37824 0 0 0.408951 -1.37824 0 0 1.26028 1.50561 0 0 0.418839 -2.01391 0 0 -3.63111zm5.18192 0.0951157l-0.0515603 0.444972c-0.112538,-0.0550918 -0.227666,-0.0960575 -0.346325,-0.123132 -0.117482,-0.027075 -0.242263,-0.0409657 -0.371516,-0.0409657 -0.219661,0 -0.391528,0.0409657 -0.515367,0.123132 -0.123132,0.0809896 -0.185052,0.193528 -0.185052,0.336437 0,0.112538 0.0421429,0.214717 0.125722,0.307007 0.0828731,0.0915842 0.263452,0.213775 0.538911,0.365395 0.359509,0.197294 0.607187,0.376931 0.74421,0.539146 0.136081,0.161273 0.203887,0.346325 0.203887,0.553743 0,0.308891 -0.112538,0.561748 -0.33832,0.759042 -0.226018,0.197765 -0.515367,0.296413 -0.870403,0.296413 -0.171868,0 -0.335966,-0.0138907 -0.493001,-0.0409657 -0.1568,-0.027075 -0.303476,-0.067099 -0.439322,-0.119601l0.0506185 -0.488292c0.149972,0.0786353 0.294765,0.136081 0.434142,0.173516 0.140555,0.0374342 0.276636,0.0567398 0.409186,0.0567398 0.212833,0 0.384701,-0.0480287 0.513719,-0.143144 0.12996,-0.0951157 0.194469,-0.221544 0.194469,-0.378344 0,-0.24344 -0.254741,-0.509481 -0.763986,-0.799066 -0.0854629,-0.0480287 -0.150207,-0.0854629 -0.194469,-0.112538 -0.194469,-0.112538 -0.347267,-0.249326 -0.457921,-0.41154 -0.11089,-0.162215 -0.165746,-0.327961 -0.165746,-0.49818 0,-0.283228 0.108065,-0.507598 0.323723,-0.673109 0.215188,-0.166688 0.508304,-0.249561 0.87982,-0.249561 0.137965,0 0.272398,0.0103591 0.401417,0.0306065 0.12996,0.0209537 0.253563,0.0513248 0.373164,0.0922905zm0.977055 -0.0951157l2.54529 0 0 0.424018 -1.01708 0 0 3.20709 -0.511129 0 0 -3.20709 -1.01708 0 0 -0.424018zm3.54871 0l0.769401 0 1.07358 2.81557c0.0251915,0.0689824 0.0452035,0.141261 0.0600359,0.218955 0.0141261,0.0774581 0.0235435,0.158683 0.0289585,0.244146 0.0122426,-0.110654 0.0251915,-0.207418 0.0400239,-0.288643 0.0138907,-0.0821668 0.0287231,-0.142203 0.0444972,-0.18152l1.11384 -2.8085 0.758571 0 0 3.63111 -0.49253 0 0 -2.85135c0,-0.0889944 0.00353152,-0.180343 0.0103591,-0.273811 0.00682761,-0.0932322 0.0174222,-0.190938 0.0331963,-0.291233 -0.0226018,0.0951157 -0.0461453,0.184816 -0.0715722,0.269573 -0.0261333,0.0845211 -0.0532083,0.161273 -0.0819314,0.230962l-1.14963 2.91586 -0.450152 0 -1.1468 -2.9613c-0.0174222,-0.0444972 -0.0355507,-0.104533 -0.0567398,-0.180579 -0.020012,-0.0758101 -0.0419074,-0.163627 -0.0638029,-0.264158 0.0105946,0.164804 0.0176576,0.294765 0.0228372,0.388232 0.00517957,0.094174 0.00776935,0.152562 0.00776935,0.176105l0 2.8417 -0.449916 0 0 -3.63111zm5.29634 0l1.96588 0 0 0.390822 -1.45734 0 0 1.15222 1.378 0 0 0.408951 -1.378 0 0 1.26028 1.50537 0 0 0.418839 -2.01391 0 0 -3.63111zm3.30857 0l0.638264 0 1.57977 2.82593c0.0218955,0.0412011 0.048735,0.103827 0.0800479,0.187642 0.0315483,0.0845211 0.0647446,0.18411 0.0988827,0.298296 -0.0218955,-0.133492 -0.0395531,-0.253093 -0.0506185,-0.359274 -0.0124781,-0.106417 -0.0185994,-0.198001 -0.0185994,-0.274753l0 -2.67784 0.467574 0 0 3.63111 -0.623432 0 -1.60755 -2.85135c-0.020012,-0.0348444 -0.0444972,-0.0913488 -0.074162,-0.172574 -0.0287231,-0.0812251 -0.0609777,-0.1867 -0.0967638,-0.315718 0.0251915,0.194469 0.0435555,0.343735 0.0548563,0.450152 0.0115363,0.105475 0.0164804,0.181285 0.0164804,0.226724l0 2.66277 -0.464749 0 0 -3.63111zm3.79356 0l2.54505 0 0 0.424018 -1.01708 0 0 3.20709 -0.511129 0 0 -3.20709 -1.01684 0 0 -0.424018z"/>
    <path id="_360064096" class="fil2" d="M35.0744 27.7731l0.769166 0 1.07358 2.81557c0.0251915,0.068747 0.0454389,0.141261 0.0602713,0.218719 0.0138907,0.0776935 0.0235435,0.158919 0.0287231,0.244146 0.0122426,-0.110654 0.0251915,-0.207418 0.0400239,-0.288643 0.0141261,-0.0819314 0.0289585,-0.142203 0.0444972,-0.181285l1.11408 -2.8085 0.758571 0 0 3.63088 -0.492765 0 0 -2.85112c0,-0.0889944 0.00376696,-0.180579 0.0103591,-0.273811 0.00706305,-0.0934677 0.0176576,-0.191173 0.0334318,-0.291468 -0.0228372,0.0953512 -0.0463807,0.184816 -0.0718077,0.269573 -0.0258978,0.0845211 -0.0532083,0.161273 -0.0816959,0.230962l-1.14963 2.91586 -0.450152 0 -1.14704 -2.96107c-0.0174222,-0.0444972 -0.0355507,-0.104769 -0.0565044,-0.180579 -0.0202474,-0.0758101 -0.0419074,-0.163863 -0.0638029,-0.264393 0.0105946,0.16504 0.0176576,0.295 0.0226018,0.388232 0.005415,0.094174 0.00800479,0.152797 0.00800479,0.176105l0 2.8417 -0.449916 0 0 -3.63088zm6.61407 0.444737l-0.720431 1.84722 1.41826 0 -0.697829 -1.84722zm-0.299002 -0.444737l0.618252 0 1.42368 3.63088 -0.549741 0 -0.349856 -0.932322 -1.72762 0 -0.349856 0.932322 -0.513719 0 1.44887 -3.63088zm2.94388 0l0.6385 0 1.57953 2.82593c0.0218955,0.0409657 0.048735,0.103827 0.0800479,0.187406 0.0317837,0.0845211 0.0647446,0.18411 0.0988827,0.298532 -0.0218955,-0.133492 -0.0395531,-0.253093 -0.0506185,-0.359509 -0.0122426,-0.106417 -0.0185994,-0.198001 -0.0185994,-0.274753l0 -2.6776 0.467574 0 0 3.63088 -0.623432 0 -1.60755 -2.85112c-0.020012,-0.0350798 -0.0444972,-0.0915842 -0.074162,-0.172809 -0.0287231,-0.0809896 -0.0609777,-0.1867 -0.0967638,-0.315718 0.0251915,0.194705 0.0435555,0.343735 0.0548563,0.450152 0.0115363,0.105475 0.0164804,0.18152 0.0164804,0.226724l0 2.66277 -0.464749 0 0 -3.63088zm5.51506 0.444737l-0.720196 1.84722 1.41826 0 -0.698065 -1.84722zm-0.299002 -0.444737l0.618488 0 1.42344 3.63088 -0.549505 0 -0.349856 -0.932322 -1.72786 0 -0.349621 0.932322 -0.513719 0 1.44863 -3.63088zm5.72366 0.160567l-0.074162 0.429198c-0.137729,-0.0699242 -0.282522,-0.122426 -0.434142,-0.157035 -0.151856,-0.0350798 -0.307243,-0.052502 -0.464984,-0.052502 -0.437909,0 -0.788472,0.13255 -1.05169,0.397885 -0.263452,0.264158 -0.395295,0.614721 -0.395295,1.05169 0,0.429198 0.131844,0.771991 0.395295,1.02838 0.263216,0.256624 0.615427,0.384701 1.05687,0.384701 0.100295,0 0.198001,-0.00894653 0.294058,-0.025427 0.0951157,-0.0174222 0.18929,-0.0435555 0.280874,-0.0793416l0 -1.10419 -0.758807 0 0 -0.396002 1.25134 0 0 1.81944c-0.168101,0.0626257 -0.345148,0.11089 -0.5302,0.142203 -0.184816,0.0313128 -0.378344,0.047087 -0.580818,0.047087 -0.596592,0 -1.06864,-0.164098 -1.41732,-0.491824 -0.347973,-0.328196 -0.52243,-0.772933 -0.52243,-1.33539 0,-0.559158 0.176105,-1.0046 0.52761,-1.33727 0.351504,-0.332199 0.825906,-0.497945 1.42156,-0.497945 0.169513,0 0.336907,0.0148324 0.504302,0.0435555 0.166453,0.0289585 0.33314,0.0734557 0.497945,0.132785zm1.4491 -0.160567l1.96588 0 0 0.390587 -1.45734 0 0 1.15222 1.378 0 0 0.409186 -1.378 0 0 1.26028 1.50537 0 0 0.418603 -2.01391 0 0 -3.63088zm3.30857 0l0.769401 0 1.07358 2.81557c0.0251915,0.068747 0.0452035,0.141261 0.0600359,0.218719 0.0141261,0.0776935 0.0235435,0.158919 0.0289585,0.244146 0.0122426,-0.110654 0.0251915,-0.207418 0.0400239,-0.288643 0.0138907,-0.0819314 0.0287231,-0.142203 0.0444972,-0.181285l1.11384 -2.8085 0.758807 0 0 3.63088 -0.492765 0 0 -2.85112c0,-0.0889944 0.00353152,-0.180579 0.0103591,-0.273811 0.00706305,-0.0934677 0.0176576,-0.191173 0.0331963,-0.291468 -0.0226018,0.0953512 -0.0461453,0.184816 -0.0715722,0.269573 -0.0261333,0.0845211 -0.0532083,0.161273 -0.0819314,0.230962l-1.14963 2.91586 -0.450152 0 -1.1468 -2.96107c-0.0174222,-0.0444972 -0.0355507,-0.104769 -0.0567398,-0.180579 -0.020012,-0.0758101 -0.0419074,-0.163863 -0.0635674,-0.264393 0.0105946,0.16504 0.0174222,0.295 0.0226018,0.388232 0.00517957,0.094174 0.00776935,0.152797 0.00776935,0.176105l0 2.8417 -0.449916 0 0 -3.63088zm5.29634 0l1.96588 0 0 0.390587 -1.45734 0 0 1.15222 1.378 0 0 0.409186 -1.378 0 0 1.26028 1.50537 0 0 0.418603 -2.01391 0 0 -3.63088zm3.30857 0l0.638264 0 1.57977 2.82593c0.0218955,0.0409657 0.048735,0.103827 0.0800479,0.187406 0.0315483,0.0845211 0.0647446,0.18411 0.0988827,0.298532 -0.0218955,-0.133492 -0.0395531,-0.253093 -0.0506185,-0.359509 -0.0124781,-0.106417 -0.0185994,-0.198001 -0.0185994,-0.274753l0 -2.6776 0.467574 0 0 3.63088 -0.623432 0 -1.60755 -2.85112c-0.020012,-0.0350798 -0.0444972,-0.0915842 -0.074162,-0.172809 -0.0287231,-0.0809896 -0.0609777,-0.1867 -0.0967638,-0.315718 0.0251915,0.194705 0.0435555,0.343735 0.0548563,0.450152 0.0115363,0.105475 0.0164804,0.18152 0.0164804,0.226724l0 2.66277 -0.464749 0 0 -3.63088zm3.79356 0l2.54505 0 0 0.424018 -1.01708 0 0 3.20686 -0.511129 0 0 -3.20686 -1.01684 0 0 -0.424018z"/>
   </g>
  </g>
 </g>
</svg>
